<svg xmlns="http://www.w3.org/2000/svg" width="249.78" height="35" viewBox="0 0 249.78 35"><rect class="svg__rect" x="0" y="0" width="117.03" height="35" fill="#E46C17"/><rect class="svg__rect" x="115.03" y="0" width="134.75" height="35" fill="#8938D5"/><path class="svg__text" d="M17.33 22L14.22 22L14.22 13.47L17.14 13.47Q18.59 13.47 19.34 14.05Q20.10 14.63 20.10 15.78L20.10 15.78Q20.10 16.36 19.78 16.83Q19.47 17.30 18.86 17.56L18.86 17.56Q19.55 17.75 19.93 18.26Q20.31 18.78 20.31 19.51L20.31 19.51Q20.31 20.71 19.53 21.36Q18.76 22 17.33 22L17.33 22ZM15.70 18.15L15.70 20.82L17.35 20.82Q18.04 20.82 18.44 20.47Q18.83 20.13 18.83 19.51L18.83 19.51Q18.83 18.18 17.47 18.15L17.47 18.15L15.70 18.15ZM15.70 14.66L15.70 17.06L17.15 17.06Q17.84 17.06 18.23 16.75Q18.62 16.43 18.62 15.86L18.62 15.86Q18.62 15.23 18.26 14.95Q17.90 14.66 17.14 14.66L17.14 14.66L15.70 14.66ZM24.64 19.16L24.64 19.16L24.64 13.47L26.12 13.47L26.12 19.18Q26.12 20.03 26.55 20.48Q26.98 20.93 27.83 20.93L27.83 20.93Q29.54 20.93 29.54 19.13L29.54 19.13L29.54 13.47L31.02 13.47L31.02 19.17Q31.02 20.53 30.15 21.32Q29.28 22.12 27.83 22.12L27.83 22.12Q26.36 22.12 25.50 21.33Q24.64 20.55 24.64 19.16ZM37.15 22L35.67 22L35.67 13.47L37.15 13.47L37.15 22ZM47.32 22L41.96 22L41.96 13.47L43.44 13.47L43.44 20.82L47.32 20.82L47.32 22ZM53.12 14.66L50.49 14.66L50.49 13.47L57.25 13.47L57.25 14.66L54.59 14.66L54.59 22L53.12 22L53.12 14.66ZM68.37 22L66.40 13.47L67.87 13.47L69.20 19.88L70.82 13.47L72.07 13.47L73.68 19.89L74.99 13.47L76.46 13.47L74.49 22L73.07 22L71.45 15.77L69.79 22L68.37 22ZM82.10 22L80.62 22L80.62 13.47L82.10 13.47L82.10 22ZM88.59 14.66L85.95 14.66L85.95 13.47L92.72 13.47L92.72 14.66L90.06 14.66L90.06 22L88.59 22L88.59 14.66ZM97.96 22L96.48 22L96.48 13.47L97.96 13.47L97.96 17.02L101.77 17.02L101.77 13.47L103.25 13.47L103.25 22L101.77 22L101.77 18.21L97.96 18.21L97.96 22Z" fill="#FFFFFF"/><path class="svg__text" d="M128.63 21.24L128.63 21.24L129.41 19.49Q129.97 19.86 130.72 20.09Q131.46 20.32 132.18 20.32L132.18 20.32Q133.55 20.32 133.55 19.64L133.55 19.64Q133.55 19.28 133.16 19.11Q132.77 18.93 131.91 18.74L131.91 18.74Q130.96 18.53 130.32 18.30Q129.69 18.06 129.23 17.55Q128.78 17.03 128.78 16.16L128.78 16.16Q128.78 15.39 129.20 14.77Q129.62 14.15 130.45 13.79Q131.29 13.43 132.49 13.43L132.49 13.43Q133.32 13.43 134.13 13.62Q134.93 13.80 135.55 14.17L135.55 14.17L134.81 15.93Q133.61 15.28 132.48 15.28L132.48 15.28Q131.77 15.28 131.45 15.49Q131.13 15.70 131.13 16.04L131.13 16.04Q131.13 16.37 131.51 16.54Q131.90 16.71 132.75 16.89L132.75 16.89Q133.71 17.10 134.34 17.33Q134.97 17.56 135.43 18.07Q135.89 18.58 135.89 19.46L135.89 19.46Q135.89 20.21 135.47 20.83Q135.05 21.44 134.21 21.80Q133.37 22.17 132.17 22.17L132.17 22.17Q131.15 22.17 130.19 21.92Q129.23 21.67 128.63 21.24ZM141.89 22L139.46 22L143.17 13.60L145.51 13.60L149.23 22L146.76 22L146.10 20.37L142.55 20.37L141.89 22ZM144.32 15.93L143.24 18.61L145.40 18.61L144.32 15.93ZM157.92 22L153.38 22L153.38 13.60L157.68 13.60Q159.29 13.60 160.13 14.19Q160.97 14.79 160.97 15.79L160.97 15.79Q160.97 16.39 160.67 16.87Q160.38 17.34 159.84 17.62L159.84 17.62Q160.56 17.87 160.97 18.41Q161.37 18.94 161.37 19.70L161.37 19.70Q161.37 20.80 160.49 21.40Q159.60 22 157.92 22L157.92 22ZM155.74 18.58L155.74 20.28L157.73 20.28Q158.98 20.28 158.98 19.43L158.98 19.43Q158.98 18.58 157.73 18.58L157.73 18.58L155.74 18.58ZM155.74 15.31L155.74 16.94L157.37 16.94Q158.57 16.94 158.57 16.12L158.57 16.12Q158.57 15.31 157.37 15.31L157.37 15.31L155.74 15.31ZM168.47 22L166.09 22L166.09 13.60L169.93 13.60Q171.08 13.60 171.92 13.98Q172.75 14.35 173.21 15.06Q173.67 15.76 173.67 16.71L173.67 16.71Q173.67 17.62 173.24 18.30Q172.81 18.98 172.02 19.36L172.02 19.36L173.83 22L171.29 22L169.76 19.77L168.47 19.77L168.47 22ZM168.47 15.47L168.47 17.93L169.79 17.93Q170.52 17.93 170.89 17.61Q171.26 17.29 171.26 16.71L171.26 16.71Q171.26 16.12 170.89 15.79Q170.52 15.47 169.79 15.47L169.79 15.47L168.47 15.47ZM178.03 17.80L178.03 17.80Q178.03 16.55 178.63 15.55Q179.23 14.56 180.30 14.00Q181.36 13.43 182.69 13.43L182.69 13.43Q184.02 13.43 185.08 14.00Q186.15 14.56 186.75 15.55Q187.36 16.55 187.36 17.80L187.36 17.80Q187.36 19.05 186.75 20.04Q186.15 21.04 185.09 21.60Q184.03 22.17 182.69 22.17L182.69 22.17Q181.36 22.17 180.30 21.60Q179.23 21.04 178.63 20.04Q178.03 19.05 178.03 17.80ZM180.42 17.80L180.42 17.80Q180.42 18.51 180.72 19.05Q181.03 19.60 181.54 19.90Q182.06 20.20 182.69 20.20L182.69 20.20Q183.33 20.20 183.84 19.90Q184.36 19.60 184.66 19.05Q184.96 18.51 184.96 17.80L184.96 17.80Q184.96 17.09 184.66 16.54Q184.36 16 183.84 15.70Q183.33 15.40 182.69 15.40L182.69 15.40Q182.05 15.40 181.54 15.70Q181.03 16 180.72 16.54Q180.42 17.09 180.42 17.80ZM191.50 21.24L191.50 21.24L192.28 19.49Q192.84 19.86 193.59 20.09Q194.33 20.32 195.05 20.32L195.05 20.32Q196.42 20.32 196.42 19.64L196.42 19.64Q196.42 19.28 196.04 19.11Q195.65 18.93 194.78 18.74L194.78 18.74Q193.83 18.53 193.19 18.30Q192.56 18.06 192.10 17.55Q191.65 17.03 191.65 16.16L191.65 16.16Q191.65 15.39 192.07 14.77Q192.49 14.15 193.32 13.79Q194.16 13.43 195.36 13.43L195.36 13.43Q196.19 13.43 197.00 13.62Q197.80 13.80 198.42 14.17L198.42 14.17L197.68 15.93Q196.48 15.28 195.35 15.28L195.35 15.28Q194.64 15.28 194.32 15.49Q194.00 15.70 194.00 16.04L194.00 16.04Q194.00 16.37 194.38 16.54Q194.77 16.71 195.62 16.89L195.62 16.89Q196.58 17.10 197.21 17.33Q197.84 17.56 198.30 18.07Q198.76 18.58 198.76 19.46L198.76 19.46Q198.76 20.21 198.34 20.83Q197.92 21.44 197.08 21.80Q196.24 22.17 195.04 22.17L195.04 22.17Q194.02 22.17 193.06 21.92Q192.10 21.67 191.50 21.24ZM203.27 18.26L203.27 18.26L203.27 13.60L205.65 13.60L205.65 18.19Q205.65 20.20 207.24 20.20L207.24 20.20Q208.82 20.20 208.82 18.19L208.82 18.19L208.82 13.60L211.17 13.60L211.17 18.26Q211.17 20.13 210.13 21.15Q209.09 22.17 207.22 22.17L207.22 22.17Q205.34 22.17 204.31 21.15Q203.27 20.13 203.27 18.26ZM218.63 22L216.25 22L216.25 13.60L220.10 13.60Q221.24 13.60 222.08 13.98Q222.92 14.35 223.37 15.06Q223.83 15.76 223.83 16.71L223.83 16.71Q223.83 17.62 223.40 18.30Q222.97 18.98 222.18 19.36L222.18 19.36L223.99 22L221.45 22L219.93 19.77L218.63 19.77L218.63 22ZM218.63 15.47L218.63 17.93L219.95 17.93Q220.68 17.93 221.05 17.61Q221.43 17.29 221.43 16.71L221.43 16.71Q221.43 16.12 221.05 15.79Q220.68 15.47 219.95 15.47L219.95 15.47L218.63 15.47ZM230.03 22L227.61 22L231.32 13.60L233.66 13.60L237.38 22L234.91 22L234.25 20.37L230.70 20.37L230.03 22ZM232.47 15.93L231.39 18.61L233.55 18.61L232.47 15.93Z" fill="#FFFFFF" x="128.03"/></svg>